<?xml version="1.0" encoding="UTF-8" standalone="no"?>
<!DOCTYPE svg PUBLIC "-//W3C//DTD SVG 1.1//EN" "http://www.w3.org/Graphics/SVG/1.1/DTD/svg11.dtd">
<svg width="100%" height="100%" viewBox="0 0 32 43" version="1.1" xmlns="http://www.w3.org/2000/svg" xmlns:xlink="http://www.w3.org/1999/xlink" xml:space="preserve" xmlns:serif="http://www.serif.com/" style="fill-rule:evenodd;clip-rule:evenodd;stroke-linejoin:round;stroke-miterlimit:2;">
    <g transform="matrix(1,0,0,1,-4247.16,-345.6)">
        <g transform="matrix(12.691,0,0,1,-46370.2,0)">
            <g transform="matrix(0.0579656,0,0,0.735638,3689.71,324.414)">
                <path d="M5173.9,28.903C5174.5,28.835 5175.11,28.8 5175.72,28.8L5175.74,28.8L5172.29,32.252L5175.67,35.639L5175.43,35.643C5171.36,35.772 5167.94,38.529 5166.83,42.272L5166.51,43.903L5166.45,44.91C5166.45,50.026 5170.61,54.181 5175.72,54.181C5180.84,54.181 5184.99,50.026 5184.99,44.91C5184.99,40.163 5181.42,36.244 5176.82,35.703L5173.37,32.255L5174.35,31.274L5174.35,31.278L5176.8,28.835C5185.19,29.387 5191.83,36.379 5191.83,44.91C5191.83,48.979 5190.32,52.697 5187.83,55.533C5192.26,57.481 5195.65,61.368 5196.93,66.119L5197.14,66.992L5197.39,68.622L5197.47,70.153C5197.47,70.198 5197.47,70.244 5197.47,70.29C5197.47,71.149 5197.41,71.992 5197.28,72.814C5196.06,80.509 5189.4,86.4 5181.36,86.4L5175.72,86.4L5179.16,82.952L5175.78,79.561L5181.48,79.561C5185.3,79.512 5188.57,77.15 5189.94,73.812C5190.39,72.726 5190.64,71.537 5190.64,70.29L5190.62,69.814C5190.37,64.918 5186.32,61.019 5181.36,61.019L5170.08,61.019C5164.97,61.019 5160.81,65.174 5160.81,70.29C5160.81,75.407 5164.97,79.561 5170.08,79.561L5174.69,79.561L5177.11,81.98L5177.11,81.977L5178.09,82.958L5174.65,86.4L5170.08,86.4C5161.19,86.4 5153.97,79.181 5153.97,70.29C5153.97,63.698 5157.94,58.026 5163.62,55.534C5162.32,54.054 5161.28,52.333 5160.59,50.447L5160.12,48.934L5159.82,47.498L5159.64,45.851L5159.67,43.556L5159.84,42.22L5160.11,40.932L5160.48,39.686L5160.95,38.485L5161.51,37.334L5161.96,36.54L5162.67,35.477L5163.57,34.341L5164.57,33.292L5165.66,32.335L5166.83,31.478L5168.08,30.728L5169.23,30.163L5170.43,29.691L5171.67,29.314L5172.4,29.143L5173.71,28.925L5173.9,28.903ZM5164.54,56.497C5165.93,57.841 5167.56,58.937 5169.36,59.713C5163.85,60.084 5159.48,64.681 5159.48,70.29C5159.48,76.142 5164.23,80.892 5170.08,80.892L5174.14,80.892L5176.21,82.96L5174.1,85.069L5170.08,85.069C5161.93,85.069 5155.31,78.447 5155.31,70.29C5155.31,64.242 5158.95,59.039 5164.15,56.753C5164.3,56.69 5164.43,56.603 5164.54,56.497ZM5186.59,55.049C5184.95,54.486 5183.19,54.181 5181.36,54.181L5180.87,54.181C5184.12,52.37 5186.32,48.895 5186.32,44.91C5186.32,39.643 5182.48,35.269 5177.44,34.447L5175.25,32.257L5177.3,30.214C5184.72,31.001 5190.5,37.285 5190.5,44.91C5190.5,48.643 5189.12,52.054 5186.83,54.656C5186.73,54.774 5186.65,54.907 5186.59,55.049Z" style="fill:rgb(255,184,0);"/>
            </g>
        </g>
    </g>
</svg>
