<?xml version="1.0" encoding="UTF-8" standalone="no"?>
<!DOCTYPE svg PUBLIC "-//W3C//DTD SVG 1.1//EN" "http://www.w3.org/Graphics/SVG/1.1/DTD/svg11.dtd">
<svg width="100%" height="100%" viewBox="0 0 32 32" version="1.1" xmlns="http://www.w3.org/2000/svg" xmlns:xlink="http://www.w3.org/1999/xlink" xml:space="preserve" xmlns:serif="http://www.serif.com/" style="fill-rule:evenodd;clip-rule:evenodd;stroke-linejoin:round;stroke-miterlimit:2;">
    <g transform="matrix(1,0,0,1,-1696,-864)">
        <path d="M1712,864C1720.83,864 1728,871.169 1728,880C1728,888.831 1720.83,896 1712,896C1703.17,896 1696,888.831 1696,880C1696,871.169 1703.17,864 1712,864ZM1713.14,878.857L1713.14,872.571C1713.14,872.256 1712.89,872 1712.57,872L1711.43,872C1711.11,872 1710.86,872.256 1710.86,872.571L1710.86,878.857L1704.57,878.857C1704.26,878.857 1704,879.113 1704,879.429L1704,880.571C1704,880.887 1704.26,881.143 1704.57,881.143L1710.86,881.143L1710.86,887.429C1710.86,887.744 1711.11,888 1711.43,888L1712.57,888C1712.89,888 1713.14,887.744 1713.14,887.429L1713.14,881.143L1719.43,881.143C1719.74,881.143 1720,880.887 1720,880.571L1720,879.429C1720,879.113 1719.74,878.857 1719.43,878.857L1713.14,878.857Z" style="fill:rgb(202,202,202);"/>
    </g>
</svg>
