<?xml version="1.0" encoding="UTF-8" standalone="no"?>
<!DOCTYPE svg PUBLIC "-//W3C//DTD SVG 1.1//EN" "http://www.w3.org/Graphics/SVG/1.1/DTD/svg11.dtd">
<svg width="100%" height="100%" viewBox="0 0 32 32" version="1.1" xmlns="http://www.w3.org/2000/svg" xmlns:xlink="http://www.w3.org/1999/xlink" xml:space="preserve" xmlns:serif="http://www.serif.com/" style="fill-rule:evenodd;clip-rule:evenodd;stroke-linejoin:round;stroke-miterlimit:2;">
    <g transform="matrix(1,0,0,1,-2497.55,-864)">
        <g transform="matrix(1,0,0,1,1985.55,0)">
            <g transform="matrix(1,0,0,1,-1985.55,0)">
                <path d="M2521.55,880C2525.96,880 2529.55,883.585 2529.55,888C2529.55,892.415 2525.96,896 2521.55,896C2517.13,896 2513.55,892.415 2513.55,888C2513.55,883.585 2517.13,880 2521.55,880ZM2521.57,885.46L2518.39,882.285L2515.87,884.799L2519.05,887.974L2515.85,891.175L2518.37,893.69L2521.57,890.489L2524.75,893.664L2527.27,891.15L2524.09,887.974L2527.24,884.825L2524.72,882.31L2521.57,885.46ZM2513.08,892.777C2512.35,891.498 2511.91,890.038 2511.84,888.482C2507.01,888.487 2502.25,887.523 2497.55,885.607L2497.55,889.925C2501.64,891.593 2505.78,892.539 2509.97,892.753L2511.55,892.799L2512.31,892.796L2513.08,892.777ZM2512.03,886.007C2512.37,884.346 2513.14,882.841 2514.22,881.609C2514.01,881.623 2513.8,881.635 2513.59,881.646L2511.93,881.69L2510.98,881.68L2510.53,881.667L2510.02,881.646L2509.58,881.621L2509.07,881.586C2508.59,881.549 2508.1,881.502 2507.62,881.446L2507.06,881.376L2506.56,881.306L2506.06,881.228L2505.55,881.144L2504.55,880.954L2503.55,880.736L2502.56,880.489L2501.61,880.23L2500.62,879.929L2499.63,879.601L2498.7,879.264L2497.71,878.881L2497.55,878.814L2497.55,883.132L2498.58,883.538L2499.7,883.943L2501.37,884.476L2501.87,884.621C2505.23,885.565 2508.61,886.028 2512.03,886.007ZM2526.35,879.545L2526.35,878.814C2526.07,878.922 2525.8,879.026 2525.52,879.127C2525.8,879.254 2526.08,879.393 2526.35,879.545ZM2518.28,878.653C2518.4,878.627 2518.53,878.605 2518.65,878.585C2521.2,878.108 2523.76,877.365 2526.35,876.354L2526.35,872.037C2516.5,875.89 2506.91,875.851 2497.55,872.037L2497.55,876.354C2504.33,879.119 2511.24,879.901 2518.28,878.653ZM2497.55,868.233L2497.55,867.919C2497.56,865.755 2504.01,864 2511.95,864C2519.89,864 2526.33,865.755 2526.35,867.919L2526.35,868.546C2526.33,870.71 2519.89,872.465 2511.95,872.465C2504.01,872.465 2497.56,870.71 2497.55,868.546L2497.55,868.233Z" style="fill:rgb(202,202,202);"/>
            </g>
        </g>
    </g>
</svg>
