<?xml version="1.0" encoding="UTF-8" standalone="no"?>
<!DOCTYPE svg PUBLIC "-//W3C//DTD SVG 1.1//EN" "http://www.w3.org/Graphics/SVG/1.1/DTD/svg11.dtd">
<svg width="100%" height="100%" viewBox="0 0 23 23" version="1.1" xmlns="http://www.w3.org/2000/svg" xmlns:xlink="http://www.w3.org/1999/xlink" xml:space="preserve" xmlns:serif="http://www.serif.com/" style="fill-rule:evenodd;clip-rule:evenodd;stroke-linejoin:round;stroke-miterlimit:2;">
    <g transform="matrix(1,0,0,1,-5118,-736.006)">
        <g transform="matrix(12.691,0,0,1,-46370.2,0)">
            <g transform="matrix(0.061286,0,0,0.777778,3743.42,163.557)">
                <path d="M5146.8,764.8L5131.83,761.067L5137.21,755.431L5144.69,757.298L5146.8,764.8ZM5142.58,762.09L5144.51,762.571L5143.4,758.632C5143.4,758.632 5137.73,757.217 5137.73,757.217C5137.73,757.217 5134.9,760.176 5134.9,760.176L5136.83,760.657L5137.06,759.721L5137.82,759.91L5137.59,760.846L5139.32,761.279L5139.56,760.343L5140.31,760.532L5140.08,761.468L5141.82,761.901L5142.05,760.965L5142.81,761.154L5142.58,762.09ZM5131.6,758.148L5133.39,757.757L5133.15,755.939C5133.13,755.756 5133.11,755.569 5133.11,755.379C5133.11,753.029 5135.02,751.12 5137.36,751.12C5137.56,751.12 5137.74,751.133 5137.93,751.157L5139.75,751.399L5140.14,749.604C5140.31,748.831 5140.4,748.029 5140.4,747.206C5140.4,741.025 5135.38,736.006 5129.2,736.006C5123.02,736.006 5118,741.025 5118,747.206C5118,753.388 5123.02,758.406 5129.2,758.406C5130.02,758.406 5130.82,758.317 5131.6,758.148ZM5131.17,756.198C5130.53,756.337 5129.88,756.41 5129.2,756.41C5124.12,756.41 5120,752.286 5120,747.206C5120,742.127 5124.12,738.003 5129.2,738.003C5134.28,738.003 5138.4,742.127 5138.4,747.206C5138.4,747.883 5138.33,748.543 5138.19,749.178C5137.92,749.142 5137.65,749.124 5137.36,749.124C5133.92,749.124 5131.12,751.927 5131.12,755.379C5131.12,755.657 5131.14,755.93 5131.17,756.198ZM5144.57,756.29L5137.62,754.558L5139.98,752.496L5143.45,753.362L5144.57,756.29ZM5145.95,741.265L5143.45,740.643L5140.72,751.589L5143.22,752.212L5145.95,741.265ZM5127.82,749.703C5127.82,748.883 5127.15,748.217 5126.33,748.217C5125.51,748.217 5124.85,748.883 5124.85,749.703C5124.85,750.524 5125.51,751.19 5126.33,751.19C5127.15,751.19 5127.82,750.524 5127.82,749.703ZM5133.3,748.217C5133.3,747.396 5132.63,746.73 5131.81,746.73C5130.99,746.73 5130.32,747.396 5130.32,748.217C5130.32,749.037 5130.99,749.703 5131.81,749.703C5132.63,749.703 5133.3,749.037 5133.3,748.217ZM5124.5,746.837C5124.5,746.302 5124.07,745.868 5123.53,745.868C5123,745.868 5122.56,746.302 5122.56,746.837C5122.56,747.372 5123,747.807 5123.53,747.807C5124.07,747.807 5124.5,747.372 5124.5,746.837ZM5131.31,744.079C5131.31,742.83 5130.3,741.816 5129.05,741.816C5127.8,741.816 5126.79,742.83 5126.79,744.079C5126.79,745.327 5127.8,746.341 5129.05,746.341C5130.3,746.341 5131.31,745.327 5131.31,744.079ZM5135.54,744.079C5135.54,743.544 5135.1,743.109 5134.57,743.109C5134.03,743.109 5133.6,743.544 5133.6,744.079C5133.6,744.614 5134.03,745.048 5134.57,745.048C5135.1,745.048 5135.54,744.614 5135.54,744.079Z" style="fill:rgb(202,202,202);"/>
            </g>
        </g>
    </g>
</svg>
