<?xml version="1.0" encoding="UTF-8" standalone="no"?>
<!DOCTYPE svg PUBLIC "-//W3C//DTD SVG 1.1//EN" "http://www.w3.org/Graphics/SVG/1.1/DTD/svg11.dtd">
<svg width="100%" height="100%" viewBox="0 0 23 23" version="1.1" xmlns="http://www.w3.org/2000/svg" xmlns:xlink="http://www.w3.org/1999/xlink" xml:space="preserve" xmlns:serif="http://www.serif.com/" style="fill-rule:evenodd;clip-rule:evenodd;stroke-linejoin:round;stroke-miterlimit:2;">
    <g transform="matrix(1,0,0,1,-5118,-841.6)">
        <g transform="matrix(12.691,0,0,1,-46370.2,0)">
            <g transform="matrix(0.0787963,0,0,1,3653.8,0)">
                <path d="M5129.2,841.6C5135.38,841.6 5140.4,846.616 5140.4,852.793C5140.4,858.971 5135.38,863.987 5129.2,863.987C5123.02,863.987 5118,858.971 5118,852.793C5118,846.616 5123.02,841.6 5129.2,841.6ZM5126.76,854.601L5134.32,847.196L5136.2,849.115L5126.73,858.391L5126.72,858.382L5126.71,858.391L5122.2,853.784L5124.12,851.904L5126.76,854.601Z" style="fill:rgb(202,202,202);"/>
            </g>
        </g>
    </g>
</svg>
