<?xml version="1.0" encoding="UTF-8" standalone="no"?>
<!DOCTYPE svg PUBLIC "-//W3C//DTD SVG 1.1//EN" "http://www.w3.org/Graphics/SVG/1.1/DTD/svg11.dtd">
<svg width="100%" height="100%" viewBox="0 0 32 32" version="1.1" xmlns="http://www.w3.org/2000/svg" xmlns:xlink="http://www.w3.org/1999/xlink" xml:space="preserve" xmlns:serif="http://www.serif.com/" style="fill-rule:evenodd;clip-rule:evenodd;stroke-linejoin:round;stroke-miterlimit:2;">
    <g transform="matrix(1,0,0,1,-4638,-800)">
        <g transform="matrix(12.691,0,0,1,-46370.2,0)">
            <g transform="matrix(0.160211,0,0,2.03323,3582.55,-597.494)">
                <path d="M2736.18,698.852C2736.33,699.006 2736.42,699.215 2736.42,699.433C2736.42,699.652 2736.33,699.861 2736.18,700.015C2735.55,700.645 2734.63,701.561 2734.63,701.561C2732.62,703.568 2729.37,703.568 2727.36,701.561C2725.35,699.554 2725.35,696.295 2727.36,694.288C2727.36,694.288 2728.26,693.387 2728.89,692.757C2729.05,692.599 2729.26,692.51 2729.49,692.51C2729.71,692.51 2729.93,692.599 2730.08,692.757C2730.1,692.77 2730.11,692.783 2730.12,692.795C2730.28,692.949 2730.36,693.159 2730.36,693.377C2730.36,693.595 2730.28,693.805 2730.12,693.959C2729.51,694.574 2728.62,695.457 2728.62,695.457C2727.25,696.827 2727.22,699.023 2728.56,700.359C2729.9,701.695 2732.09,701.667 2733.46,700.297C2733.46,700.297 2734.35,699.414 2734.96,698.799C2735.12,698.644 2735.33,698.558 2735.54,698.558C2735.76,698.558 2735.97,698.644 2736.12,698.799C2736.14,698.816 2736.16,698.834 2736.18,698.852ZM2731.27,691.542C2731.11,691.388 2731.03,691.179 2731.03,690.96C2731.03,690.742 2731.11,690.533 2731.27,690.378C2731.9,689.749 2732.81,688.833 2732.81,688.833C2734.82,686.826 2738.08,686.826 2740.09,688.833C2742.09,690.84 2742.09,694.099 2740.09,696.106C2740.09,696.106 2739.17,697.022 2738.54,697.652C2738.39,697.806 2738.18,697.893 2737.96,697.893C2737.74,697.893 2737.53,697.806 2737.38,697.652C2737.36,697.634 2737.34,697.616 2737.33,697.599C2737.17,697.444 2737.08,697.235 2737.08,697.017C2737.08,696.799 2737.17,696.589 2737.33,696.435C2737.94,695.82 2738.82,694.937 2738.82,694.937C2740.19,693.567 2740.22,691.37 2738.89,690.035C2738.35,689.502 2737.68,689.186 2736.98,689.086C2735.93,688.935 2734.81,689.273 2733.98,690.097C2733.98,690.097 2733.1,690.98 2732.49,691.595C2732.33,691.749 2732.12,691.836 2731.9,691.836C2731.68,691.836 2731.47,691.749 2731.32,691.595C2731.3,691.577 2731.29,691.56 2731.27,691.542ZM2735.54,694.593C2735.88,694.258 2735.88,693.714 2735.54,693.379C2735.21,693.043 2734.66,693.043 2734.33,693.379L2731.91,695.8C2731.57,696.136 2731.57,696.68 2731.91,697.015C2732.24,697.35 2732.78,697.35 2733.12,697.015L2735.54,694.593Z" style="fill:rgb(202,202,202);"/>
            </g>
        </g>
    </g>
</svg>
