<?xml version="1.0" encoding="UTF-8" standalone="no"?>
<!DOCTYPE svg PUBLIC "-//W3C//DTD SVG 1.1//EN" "http://www.w3.org/Graphics/SVG/1.1/DTD/svg11.dtd">
<svg width="100%" height="100%" viewBox="0 0 32 32" version="1.1" xmlns="http://www.w3.org/2000/svg" xmlns:xlink="http://www.w3.org/1999/xlink" xml:space="preserve" xmlns:serif="http://www.serif.com/" style="fill-rule:evenodd;clip-rule:evenodd;stroke-linejoin:round;stroke-miterlimit:2;">
    <g transform="matrix(1,0,0,1,-704,-32)">
        <g transform="matrix(1,0,0,1,-512,-352)">
            <path d="M1248,412.16C1248,410.747 1246.85,409.6 1245.44,409.6L1218.56,409.6C1217.15,409.6 1216,410.747 1216,412.16L1216,413.44C1216,414.853 1217.15,416 1218.56,416L1245.44,416C1246.85,416 1248,414.853 1248,413.44L1248,412.16ZM1248,399.36C1248,397.947 1246.85,396.8 1245.44,396.8L1218.56,396.8C1217.15,396.8 1216,397.947 1216,399.36L1216,400.64C1216,402.053 1217.15,403.2 1218.56,403.2L1245.44,403.2C1246.85,403.2 1248,402.053 1248,400.64L1248,399.36ZM1248,386.56C1248,385.147 1246.85,384 1245.44,384L1218.56,384C1217.15,384 1216,385.147 1216,386.56L1216,387.84C1216,389.253 1217.15,390.4 1218.56,390.4L1245.44,390.4C1246.85,390.4 1248,389.253 1248,387.84L1248,386.56Z" style="fill:rgb(202,202,202);"/>
        </g>
    </g>
</svg>
