<?xml version="1.0" encoding="UTF-8" standalone="no"?>
<!DOCTYPE svg PUBLIC "-//W3C//DTD SVG 1.1//EN" "http://www.w3.org/Graphics/SVG/1.1/DTD/svg11.dtd">
<svg width="100%" height="100%" viewBox="0 0 23 23" version="1.1" xmlns="http://www.w3.org/2000/svg" xmlns:xlink="http://www.w3.org/1999/xlink" xml:space="preserve" xmlns:serif="http://www.serif.com/" style="fill-rule:evenodd;clip-rule:evenodd;stroke-linejoin:round;stroke-miterlimit:2;">
    <g transform="matrix(1,0,0,1,-480,-128)">
        <g transform="matrix(1.4,0,0,1.4,54.4,-606.72)">
            <path d="M316,529.6L318.4,529.6L318.4,540.8L305.6,540.8L305.6,529.6L308,529.6L308,538.4C308,538.842 308.358,539.2 308.8,539.2C309.242,539.2 309.6,538.842 309.6,538.4L309.6,529.6L311.2,529.6L311.2,538.4C311.2,538.842 311.558,539.2 312,539.2C312.442,539.2 312.8,538.842 312.8,538.4L312.8,529.6L314.4,529.6L314.4,538.4C314.4,538.842 314.758,539.2 315.2,539.2C315.642,539.2 316,538.842 316,538.4L316,529.6ZM308.8,526.4L308.8,524.8L315.2,524.8L315.2,526.4L320,526.4L320,528L304,528L304,526.4L308.8,526.4ZM313.6,526C313.6,525.779 313.421,525.6 313.2,525.6L310.8,525.6C310.579,525.6 310.4,525.779 310.4,526L310.4,526.8C310.4,527.021 310.579,527.2 310.8,527.2L313.2,527.2C313.421,527.2 313.6,527.021 313.6,526.8L313.6,526Z" style="fill:rgb(202,202,202);"/>
            <path d="M316,529.6L318.4,529.6L318.4,540.8L305.6,540.8L305.6,529.6L308,529.6L308,538.4C308,538.842 308.358,539.2 308.8,539.2C309.242,539.2 309.6,538.842 309.6,538.4L309.6,529.6L311.2,529.6L311.2,538.4C311.2,538.842 311.558,539.2 312,539.2C312.442,539.2 312.8,538.842 312.8,538.4L312.8,529.6L314.4,529.6L314.4,538.4C314.4,538.842 314.758,539.2 315.2,539.2C315.642,539.2 316,538.842 316,538.4L316,529.6ZM308.8,526.4L308.8,524.8L315.2,524.8L315.2,526.4L320,526.4L320,528L304,528L304,526.4L308.8,526.4ZM313.6,526C313.6,525.779 313.421,525.6 313.2,525.6L310.8,525.6C310.579,525.6 310.4,525.779 310.4,526L310.4,526.8C310.4,527.021 310.579,527.2 310.8,527.2L313.2,527.2C313.421,527.2 313.6,527.021 313.6,526.8L313.6,526Z" style="fill:rgb(202,202,202);"/>
        </g>
    </g>
</svg>
