<?xml version="1.0" encoding="UTF-8" standalone="no"?>
<!DOCTYPE svg PUBLIC "-//W3C//DTD SVG 1.1//EN" "http://www.w3.org/Graphics/SVG/1.1/DTD/svg11.dtd">
<svg width="100%" height="100%" viewBox="0 0 32 32" version="1.1" xmlns="http://www.w3.org/2000/svg" xmlns:xlink="http://www.w3.org/1999/xlink" xml:space="preserve" xmlns:serif="http://www.serif.com/" style="fill-rule:evenodd;clip-rule:evenodd;stroke-linejoin:round;stroke-miterlimit:2;">
    <g transform="matrix(1,0,0,1,-4372.4,-800.006)">
        <g transform="matrix(12.691,0,0,1,-47583,512)">
            <g transform="matrix(0.0787963,0,0,1,3558.31,-31.9937)">
                <path d="M6815.69,342.627C6815.69,342.354 6815.58,342.092 6815.39,341.899C6815.2,341.706 6814.94,341.598 6814.66,341.598C6813.73,341.598 6812.37,341.598 6811.46,341.598C6810.93,341.598 6810.5,342.028 6810.5,342.559C6810.5,344.537 6810.5,349.046 6810.5,351.031C6810.5,351.566 6810.93,352 6811.47,352C6812.39,352 6813.77,352 6814.7,352C6815.25,352 6815.69,351.557 6815.69,351.011C6815.69,349.038 6815.69,344.631 6815.69,342.627ZM6809.5,344.284L6809.5,349.314L6797.1,349.314L6797.1,344.284L6809.5,344.284ZM6816.69,344.284L6829.1,344.284L6829.1,349.314L6816.69,349.314L6816.69,344.284ZM6825,331.783C6825,331.24 6824.56,330.799 6824.02,330.799C6823.08,330.799 6821.69,330.799 6820.75,330.799C6820.49,330.799 6820.23,330.905 6820.05,331.093C6819.86,331.28 6819.75,331.535 6819.75,331.801C6819.75,333.799 6819.75,338.256 6819.75,340.229C6819.75,340.487 6819.85,340.734 6820.04,340.916C6820.22,341.099 6820.47,341.201 6820.72,341.201C6821.64,341.201 6823.02,341.201 6823.96,341.201C6824.24,341.201 6824.5,341.092 6824.7,340.898C6824.89,340.703 6825,340.44 6825,340.165C6825,338.155 6825,333.751 6825,331.783ZM6818.75,333.485L6818.75,338.515L6797.1,338.515L6797.1,333.485L6818.75,333.485ZM6826,333.485L6829.1,333.485L6829.1,338.515L6826,338.515L6826,333.485ZM6806.44,321.02C6806.44,320.457 6805.98,320 6805.42,320C6804.49,320 6803.13,320 6802.21,320C6801.65,320 6801.19,320.456 6801.19,321.018C6801.19,323.022 6801.19,327.457 6801.19,329.426C6801.19,329.685 6801.29,329.933 6801.48,330.116C6801.66,330.299 6801.91,330.402 6802.17,330.402C6803.11,330.402 6804.52,330.402 6805.46,330.402C6806,330.402 6806.44,329.963 6806.44,329.422C6806.44,327.451 6806.44,323.025 6806.44,321.02ZM6800.19,322.686L6800.19,327.716L6797.1,327.716L6797.1,322.686L6800.19,322.686ZM6807.44,322.686L6829.1,322.686L6829.1,327.716L6807.44,327.716L6807.44,322.686Z" style="fill:rgb(202,202,202);"/>
            </g>
        </g>
    </g>
</svg>
