<?xml version="1.0" encoding="UTF-8" standalone="no"?>
<!DOCTYPE svg PUBLIC "-//W3C//DTD SVG 1.1//EN" "http://www.w3.org/Graphics/SVG/1.1/DTD/svg11.dtd">
<svg width="100%" height="100%" viewBox="0 0 32 32" version="1.1" xmlns="http://www.w3.org/2000/svg" xmlns:xlink="http://www.w3.org/1999/xlink" xml:space="preserve" xmlns:serif="http://www.serif.com/" style="fill-rule:evenodd;clip-rule:evenodd;stroke-linejoin:round;stroke-miterlimit:2;">
    <g transform="matrix(1,0,0,1,-1315.2,-208.019)">
        <g transform="matrix(1,0,0,1,-8966.8,156.019)">
            <path d="M10300.4,71.487C10299.7,71.334 10298.8,71.253 10298,71.253C10291,71.253 10285.3,76.965 10285.3,84L10282,84C10282,77.268 10286.2,71.501 10292.1,69.14C10289.8,67.382 10288.4,64.657 10288.4,61.6C10288.4,56.302 10292.7,52 10298,52C10303.3,52 10307.6,56.302 10307.6,61.6C10307.6,64.529 10306.3,67.154 10304.2,68.915C10302.7,69.407 10301.4,70.309 10300.4,71.487ZM10306.8,69.6C10310.8,69.6 10314,72.826 10314,76.8C10314,80.774 10310.8,84 10306.8,84C10302.8,84 10299.6,80.774 10299.6,76.8C10299.6,72.826 10302.8,69.6 10306.8,69.6ZM10308.4,75.2L10308.4,71.158L10305.2,71.158L10305.2,75.2L10301.2,75.2L10301.2,78.4L10305.2,78.4L10305.2,82.442L10308.4,82.442L10308.4,78.4L10312.5,78.4L10312.5,75.2L10308.4,75.2ZM10298,55.218C10301.5,55.218 10304.4,58.078 10304.4,61.6C10304.4,65.122 10301.5,67.982 10298,67.982C10294.5,67.982 10291.6,65.122 10291.6,61.6C10291.6,58.078 10294.5,55.218 10298,55.218Z" style="fill:rgb(202,202,202);"/>
        </g>
    </g>
</svg>
