<?xml version="1.0" encoding="UTF-8" standalone="no"?>
<!DOCTYPE svg PUBLIC "-//W3C//DTD SVG 1.1//EN" "http://www.w3.org/Graphics/SVG/1.1/DTD/svg11.dtd">
<svg width="100%" height="100%" viewBox="0 0 32 33" version="1.1" xmlns="http://www.w3.org/2000/svg" xmlns:xlink="http://www.w3.org/1999/xlink" xml:space="preserve" xmlns:serif="http://www.serif.com/" style="fill-rule:evenodd;clip-rule:evenodd;stroke-linejoin:round;stroke-miterlimit:2;">
    <g transform="matrix(1,0,0,1,-1792,-251.199)">
        <g transform="matrix(12.691,0,0,1,-50246.6,-432)">
            <g transform="matrix(0.0787963,0,0,1,3644.22,11.1987)">
                <path d="M5822,679.752C5822,679.752 5822,700.49 5822,700.49C5822,702.428 5820.43,704.003 5818.49,704.003C5818.49,704.003 5803.21,704.003 5803.21,704.003C5801.27,704.003 5799.69,702.428 5799.69,700.49C5799.69,700.49 5799.69,684.655 5799.69,684.655C5799.69,684.592 5799.72,684.531 5799.76,684.487C5799.76,684.487 5807.94,676.309 5807.94,676.309C5807.99,676.265 5808.05,676.24 5808.11,676.24L5818.49,676.24C5820.43,676.24 5822,677.814 5822,679.752ZM5810.88,679.275L5810.88,679.275L5810.19,679.275C5809.93,679.275 5809.72,679.489 5809.72,679.752L5809.72,682.75C5809.72,684.688 5808.14,686.262 5806.2,686.262L5802.98,686.262C5802.65,686.262 5802.73,686.516 5802.73,686.516C5802.73,686.516 5802.73,700.49 5802.73,700.49C5802.73,700.753 5802.94,700.967 5803.21,700.967C5803.21,700.967 5818.49,700.967 5818.49,700.967C5818.75,700.967 5818.97,700.753 5818.97,700.49L5818.97,679.752C5818.97,679.489 5818.75,679.275 5818.49,679.275L5810.88,679.275ZM5800.02,675.475L5800.02,678.51C5800.02,680.449 5798.45,682.023 5796.51,682.023L5793.29,682.023C5792.95,682.023 5793.03,682.277 5793.03,682.277C5793.03,682.277 5793.03,696.25 5793.03,696.25C5793.03,696.509 5793.24,696.721 5793.5,696.728L5797.94,696.728C5798.25,696.728 5798.49,696.972 5798.49,697.273C5798.49,697.273 5798.49,699.217 5798.49,699.217C5798.49,699.519 5798.25,699.763 5797.94,699.763C5797.94,699.763 5793.51,699.763 5793.51,699.763C5791.57,699.763 5790,698.189 5790,696.25C5790,696.25 5790,680.416 5790,680.416C5790,680.353 5790.03,680.292 5790.07,680.247C5790.07,680.247 5798.25,672.07 5798.25,672.07C5798.29,672.025 5798.35,672 5798.42,672C5798.42,672 5808.79,672 5808.79,672C5810.47,672 5811.87,673.175 5812.22,674.745C5812.24,674.815 5812.22,674.889 5812.18,674.946C5812.13,675.002 5812.06,675.035 5811.99,675.035L5801.19,675.035L5801.19,675.037L5800.5,675.037C5800.25,675.037 5800.04,675.23 5800.02,675.475ZM5809.78,690.637C5809.88,690.736 5810.05,690.736 5810.14,690.637L5813.76,687.018C5813.96,686.823 5814.28,686.823 5814.47,687.018C5814.47,687.018 5816.19,688.739 5816.19,688.739C5816.39,688.935 5816.39,689.252 5816.19,689.448C5816.19,689.448 5810.31,695.332 5810.31,695.332C5810.11,695.527 5809.8,695.527 5809.6,695.332C5809.6,695.332 5805.5,691.233 5805.5,691.233C5805.31,691.037 5805.31,690.72 5805.5,690.524C5805.5,690.524 5807.23,688.793 5807.23,688.793C5807.43,688.598 5807.74,688.598 5807.94,688.793C5807.94,688.793 5809.78,690.637 5809.78,690.637ZM5798.49,691.482C5798.49,691.482 5798.49,693.426 5798.49,693.426C5798.49,693.727 5798.25,693.972 5797.94,693.972C5797.94,693.972 5794.71,693.972 5794.71,693.972C5794.41,693.972 5794.17,693.727 5794.17,693.426L5794.17,691.482C5794.17,691.181 5794.41,690.936 5794.71,690.936C5794.71,690.936 5797.94,690.936 5797.94,690.936C5798.25,690.936 5798.49,691.181 5798.49,691.482ZM5798.49,684.756C5798.49,684.756 5798.49,686.7 5798.49,686.7C5798.49,687.001 5798.25,687.246 5797.94,687.246L5794.71,687.246C5794.41,687.246 5794.17,687.001 5794.17,686.7L5794.17,684.756C5794.17,684.455 5794.41,684.211 5794.71,684.211C5794.71,684.211 5797.94,684.211 5797.94,684.211C5798.25,684.211 5798.49,684.455 5798.49,684.756Z" style="fill:rgb(39,39,39);"/>
            </g>
        </g>
    </g>
</svg>
