<?xml version="1.0" encoding="UTF-8" standalone="no"?>
<!DOCTYPE svg PUBLIC "-//W3C//DTD SVG 1.1//EN" "http://www.w3.org/Graphics/SVG/1.1/DTD/svg11.dtd">
<svg width="100%" height="100%" viewBox="0 0 16 16" version="1.1" xmlns="http://www.w3.org/2000/svg" xmlns:xlink="http://www.w3.org/1999/xlink" xml:space="preserve" xmlns:serif="http://www.serif.com/" style="fill-rule:evenodd;clip-rule:evenodd;stroke-linejoin:round;stroke-miterlimit:2;">
    <g transform="matrix(1,0,0,1,-2919.41,-270.39)">
        <g transform="matrix(1,0,0,1,1510.61,-192)">
            <g transform="matrix(0.5,0,0,0.5,1152.81,254.39)">
                <path d="M528,416C536.831,416 544,423.169 544,432C544,440.831 536.831,448 528,448C519.169,448 512,440.831 512,432C512,423.169 519.169,416 528,416ZM527.685,427.689C527.788,427.678 527.894,427.673 528,427.673C529.766,427.673 531.2,429.107 531.2,430.873L531.2,441.266C531.487,441.054 531.749,440.837 531.984,440.622C532.098,440.503 532.271,440.459 532.428,440.509C532.586,440.559 532.701,440.695 532.726,440.859C532.783,442.241 531.748,443.707 530.088,444.41C529.423,444.691 528.74,444.815 528.099,444.798C528.066,444.799 528.033,444.8 528,444.8C527.309,444.8 526.668,444.58 526.145,444.207C525.931,444.061 525.741,443.889 525.58,443.692C525.094,443.131 524.8,442.4 524.8,441.6L524.8,431.166C524.483,431.395 524.194,431.633 523.939,431.867C523.825,431.986 523.652,432.03 523.494,431.979C523.337,431.929 523.221,431.794 523.197,431.63C523.14,430.247 524.175,428.781 525.835,428.079C526.452,427.818 527.084,427.692 527.685,427.689ZM527.984,425.6C529.742,425.6 531.169,424.157 531.169,422.38C531.169,420.602 529.742,419.159 527.984,419.159C526.227,419.159 524.8,420.602 524.8,422.38C524.8,424.157 526.227,425.6 527.984,425.6Z" style="fill:rgb(25,25,25);"/>
            </g>
        </g>
    </g>
</svg>
