<?xml version="1.0" encoding="UTF-8" standalone="no"?>
<!DOCTYPE svg PUBLIC "-//W3C//DTD SVG 1.1//EN" "http://www.w3.org/Graphics/SVG/1.1/DTD/svg11.dtd">
<svg width="100%" height="100%" viewBox="0 0 10 16" version="1.1" xmlns="http://www.w3.org/2000/svg" xmlns:xlink="http://www.w3.org/1999/xlink" xml:space="preserve" xmlns:serif="http://www.serif.com/" style="fill-rule:evenodd;clip-rule:evenodd;stroke-linejoin:round;stroke-miterlimit:2;">
    <g transform="matrix(1,0,0,1,-288.44,-594)">
        <g transform="matrix(1,0,0,1,-830.428,378)">
            <path d="M1119.6,224.754C1119.41,224.754 1119.22,224.831 1119.08,224.969C1118.95,225.106 1118.87,225.292 1118.87,225.486C1118.87,226.277 1118.87,227.429 1118.87,227.429C1118.87,229.952 1120.92,232 1123.44,232C1125.96,232 1128.01,229.952 1128.01,227.429L1128.01,225.505C1128.01,225.306 1127.93,225.115 1127.79,224.974C1127.65,224.833 1127.46,224.754 1127.26,224.754C1127.25,224.754 1127.23,224.754 1127.21,224.754C1127.02,224.754 1126.83,224.831 1126.7,224.969C1126.56,225.106 1126.48,225.292 1126.48,225.486C1126.48,226.259 1126.48,227.369 1126.48,227.369C1126.48,229.091 1125.12,230.489 1123.44,230.489C1121.76,230.489 1120.4,229.091 1120.4,227.369L1120.4,225.486C1120.4,225.292 1120.32,225.106 1120.18,224.969C1120.05,224.831 1119.86,224.754 1119.67,224.754C1119.64,224.754 1119.62,224.754 1119.6,224.754ZM1122.68,222.478C1122.68,222.056 1123.02,221.714 1123.44,221.714C1123.86,221.714 1124.2,222.056 1124.2,222.478L1124.2,225.522C1124.2,225.944 1123.86,226.286 1123.44,226.286C1123.02,226.286 1122.68,225.944 1122.68,225.522L1122.68,222.478ZM1127.28,223.246C1127.47,223.246 1127.66,223.169 1127.8,223.031C1127.93,222.894 1128.01,222.708 1128.01,222.514C1128.01,221.723 1128.01,220.571 1128.01,220.571C1128.01,218.048 1125.96,216 1123.44,216C1120.92,216 1118.87,218.048 1118.87,220.571L1118.87,222.514C1118.87,222.708 1118.95,222.894 1119.08,223.031C1119.22,223.169 1119.41,223.246 1119.6,223.246C1119.62,223.246 1119.64,223.246 1119.67,223.246C1119.86,223.246 1120.05,223.169 1120.18,223.031C1120.32,222.894 1120.4,222.708 1120.4,222.514C1120.4,221.741 1120.4,220.631 1120.4,220.631C1120.4,218.909 1121.76,217.511 1123.44,217.511C1125.12,217.511 1126.48,218.909 1126.48,220.631L1126.48,222.514C1126.48,222.708 1126.56,222.894 1126.7,223.031C1126.83,223.169 1127.02,223.246 1127.21,223.246C1127.24,223.246 1127.26,223.246 1127.28,223.246Z" style="fill:rgb(202,202,202);"/>
        </g>
    </g>
</svg>
