<?xml version="1.0" encoding="UTF-8" standalone="no"?>
<!DOCTYPE svg PUBLIC "-//W3C//DTD SVG 1.1//EN" "http://www.w3.org/Graphics/SVG/1.1/DTD/svg11.dtd">
<svg width="100%" height="100%" viewBox="0 0 26 26" version="1.1" xmlns="http://www.w3.org/2000/svg" xmlns:xlink="http://www.w3.org/1999/xlink" xml:space="preserve" xmlns:serif="http://www.serif.com/" style="fill-rule:evenodd;clip-rule:evenodd;stroke-linejoin:round;stroke-miterlimit:2;">
    <g transform="matrix(1,0,0,1,-574,-159)">
        <path d="M600,180.6C600,180.269 599.731,180 599.4,180L574.6,180C574.269,180 574,180.269 574,180.6L574,184.4C574,184.731 574.269,185 574.6,185L599.4,185C599.731,185 600,184.731 600,184.4L600,180.6ZM600,170.1C600,169.769 599.731,169.5 599.4,169.5L574.6,169.5C574.269,169.5 574,169.769 574,170.1L574,173.9C574,174.231 574.269,174.5 574.6,174.5L599.4,174.5C599.731,174.5 600,174.231 600,173.9L600,170.1ZM600,159.6C600,159.269 599.731,159 599.4,159L574.6,159C574.269,159 574,159.269 574,159.6L574,163.4C574,163.731 574.269,164 574.6,164L599.4,164C599.731,164 600,163.731 600,163.4L600,159.6Z" style="fill:rgb(202,202,202);"/>
    </g>
</svg>
