<?xml version="1.0" encoding="UTF-8" standalone="no"?>
<!DOCTYPE svg PUBLIC "-//W3C//DTD SVG 1.1//EN" "http://www.w3.org/Graphics/SVG/1.1/DTD/svg11.dtd">
<svg width="100%" height="100%" viewBox="0 0 16 16" version="1.1" xmlns="http://www.w3.org/2000/svg" xmlns:xlink="http://www.w3.org/1999/xlink" xml:space="preserve" xmlns:serif="http://www.serif.com/" style="fill-rule:evenodd;clip-rule:evenodd;stroke-linejoin:round;stroke-miterlimit:2;">
    <g transform="matrix(1,0,0,1,-1094.4,-286.4)">
        <g transform="matrix(1,0,0,1,953.6,-472)">
            <path d="M153.2,764.8L155,766.6L155,770.85C155,772.809 153.409,774.4 151.45,774.4L144.35,774.4C142.391,774.4 140.8,772.809 140.8,770.85L140.8,763.75C140.8,761.791 142.391,760.2 144.35,760.2L148.6,760.2L150.4,762L144.35,762C143.384,762 142.6,762.784 142.6,763.75C142.6,763.75 142.6,770.85 142.6,770.85C142.6,771.816 143.384,772.6 144.35,772.6L151.45,772.6C152.416,772.6 153.2,771.816 153.2,770.85L153.2,764.8ZM153.899,760.2L152.2,760.2L150.4,758.4L156.8,758.4L156.8,764.8L155,763L155,761.301L148.301,768L147.2,766.899L153.899,760.2Z" style="fill:rgb(202,202,202);"/>
        </g>
    </g>
</svg>
