<?xml version="1.0" encoding="UTF-8" standalone="no"?>
<!DOCTYPE svg PUBLIC "-//W3C//DTD SVG 1.1//EN" "http://www.w3.org/Graphics/SVG/1.1/DTD/svg11.dtd">
<svg width="100%" height="100%" viewBox="0 0 16 16" version="1.1" xmlns="http://www.w3.org/2000/svg" xmlns:xlink="http://www.w3.org/1999/xlink" xml:space="preserve" xmlns:serif="http://www.serif.com/" style="fill-rule:evenodd;clip-rule:evenodd;stroke-linejoin:round;stroke-miterlimit:2;">
    <g transform="matrix(1,0,0,1,-1094.4,-310.4)">
        <g transform="matrix(1.11092,0,0,1.11092,1043.76,138.875)">
            <path d="M50.168,166.324C50.62,166.575 51.117,166.764 51.649,166.879C54.563,167.506 57.438,165.65 58.065,162.737C58.192,162.147 58.217,161.559 58.153,160.992L59.791,159.934C60.034,160.947 60.059,162.029 59.825,163.116C58.988,167 55.155,169.475 51.271,168.639C50.239,168.417 49.307,167.983 48.51,167.394L46.804,168.495L47.124,163.555L51.758,165.297L50.168,166.324ZM57.082,155.821L58.8,154.712L58.48,159.651L53.847,157.91L55.428,156.889C54.969,156.632 54.464,156.438 53.923,156.321C51.009,155.694 48.134,157.55 47.507,160.463C47.38,161.053 47.355,161.641 47.419,162.208L45.781,163.266C45.539,162.253 45.514,161.171 45.747,160.084C46.584,156.2 50.417,153.725 54.302,154.561C55.342,154.785 56.281,155.224 57.082,155.821Z" style="fill:rgb(202,202,202);"/>
        </g>
    </g>
</svg>
