<?xml version="1.0" encoding="UTF-8" standalone="no"?>
<!DOCTYPE svg PUBLIC "-//W3C//DTD SVG 1.1//EN" "http://www.w3.org/Graphics/SVG/1.1/DTD/svg11.dtd">
<svg width="100%" height="100%" viewBox="0 0 32 33" version="1.1" xmlns="http://www.w3.org/2000/svg" xmlns:xlink="http://www.w3.org/1999/xlink" xml:space="preserve" xmlns:serif="http://www.serif.com/" style="fill-rule:evenodd;clip-rule:evenodd;stroke-linejoin:round;stroke-miterlimit:2;">
    <g transform="matrix(1,0,0,1,-1206.39,-208.013)">
        <g transform="matrix(1,0,0,1,729.595,96.0127)">
            <g transform="matrix(1,0,0,1,0.328724,0.36136)">
                <path d="M508.471,140.866L505.686,143.651L504.751,142.735L497.24,135.288C498.303,134.508 499.249,133.572 500.041,132.508L508.471,140.866Z" style="fill:rgb(202,202,202);"/>
            </g>
            <g transform="matrix(1,0,0,1,377.6,63.9873)">
                <path d="M113.187,48.087L113.218,48.088C113.218,48.088 113.187,48.087 113.187,48.087C113.187,48.087 113.218,48.088 113.218,48.088L113.187,48.087C120.118,48.835 125.137,55.069 124.389,62C123.641,68.93 117.407,73.95 110.476,73.202C103.545,72.454 98.526,66.219 99.274,59.289C100.022,52.358 106.256,47.339 113.187,48.087ZM112.83,51.133C107.595,50.567 102.885,54.359 102.32,59.595C101.755,64.831 105.547,69.541 110.783,70.106C116.018,70.671 120.728,66.879 121.293,61.643C121.858,56.407 118.066,51.698 112.83,51.133L112.83,51.133Z" style="fill:rgb(202,202,202);"/>
            </g>
        </g>
    </g>
</svg>
