<?xml version="1.0" encoding="UTF-8" standalone="no"?>
<!DOCTYPE svg PUBLIC "-//W3C//DTD SVG 1.1//EN" "http://www.w3.org/Graphics/SVG/1.1/DTD/svg11.dtd">
<svg width="100%" height="100%" viewBox="0 0 32 32" version="1.1" xmlns="http://www.w3.org/2000/svg" xmlns:xlink="http://www.w3.org/1999/xlink" xml:space="preserve" xmlns:serif="http://www.serif.com/" style="fill-rule:evenodd;clip-rule:evenodd;stroke-linejoin:round;stroke-miterlimit:2;">
    <g transform="matrix(1,0,0,1,-1216,-32)">
        <g transform="matrix(1,0,0,1,-2087.95,-9.6)">
            <path d="M3307.14,48L3307.14,44.8L3319.95,44.8L3319.95,48L3307.14,48ZM3314.87,60.412L3310.35,55.886L3312.61,53.624L3319.4,60.412L3312.61,67.2L3310.35,64.937L3314.87,60.412ZM3329.55,64L3319.95,64L3319.95,67.2L3329.55,67.2L3329.55,64ZM3335.95,44.8C3335.95,43.034 3334.51,41.6 3332.74,41.6L3307.14,41.6C3305.38,41.6 3303.95,43.034 3303.95,44.8L3303.95,70.4C3303.95,72.166 3305.38,73.6 3307.14,73.6L3332.74,73.6C3334.51,73.6 3335.95,72.166 3335.95,70.4L3335.95,44.8ZM3329.55,48L3329.55,44.8L3332.74,44.8L3332.74,70.4L3307.14,70.4L3307.14,51.2L3332.74,51.2L3332.74,48L3329.55,48ZM3323.14,48L3323.14,44.8L3326.35,44.8L3326.35,48L3323.14,48Z" style="fill:rgb(202,202,202);"/>
        </g>
    </g>
</svg>
