<?xml version="1.0" encoding="UTF-8" standalone="no"?>
<!DOCTYPE svg PUBLIC "-//W3C//DTD SVG 1.1//EN" "http://www.w3.org/Graphics/SVG/1.1/DTD/svg11.dtd">
<svg width="100%" height="100%" viewBox="0 0 64 32" version="1.1" xmlns="http://www.w3.org/2000/svg" xmlns:xlink="http://www.w3.org/1999/xlink" xml:space="preserve" xmlns:serif="http://www.serif.com/" style="fill-rule:evenodd;clip-rule:evenodd;stroke-linejoin:round;stroke-miterlimit:2;">
    <g transform="matrix(1,0,0,1,-88,-80)">
        <g transform="matrix(1,0,0,1,-328,-16)">
            <path d="M427.069,96.057C427.402,96.019 427.74,96 428.083,96L428.092,96L426.175,97.918L428.054,99.799L427.918,99.802C425.657,99.873 423.761,101.405 423.144,103.485L422.963,104.391L422.933,104.95C422.933,107.792 425.241,110.1 428.083,110.1C430.926,110.1 433.234,107.792 433.234,104.95C433.234,102.313 431.248,100.136 428.691,99.835L426.775,97.919L427.32,97.374L427.322,97.376L428.679,96.02C433.341,96.326 437.033,100.21 437.033,104.95C437.033,107.21 436.193,109.276 434.809,110.852C437.272,111.934 439.156,114.094 439.863,116.733L439.978,117.218L440.119,118.124L440.166,118.974C440.166,118.999 440.166,119.024 440.166,119.05C440.166,119.527 440.129,119.996 440.057,120.452C439.383,124.727 435.679,128 431.217,128L428.083,128L429.994,126.085L428.113,124.201L431.283,124.2C433.405,124.173 435.219,122.861 435.982,121.007C436.23,120.403 436.367,119.743 436.367,119.05L436.36,118.785C436.222,116.065 433.97,113.9 431.217,113.9L424.95,113.9C422.107,113.9 419.799,116.208 419.799,119.05C419.799,121.893 422.107,124.201 424.95,124.201L427.508,124.201L428.851,125.545L428.853,125.543L429.398,126.088L427.485,128L424.95,128C420.01,128 416,123.99 416,119.05C416,115.388 418.205,112.237 421.358,110.852C420.635,110.03 420.061,109.074 419.677,108.026L419.415,107.185L419.249,106.388L419.148,105.473L419.165,104.198L419.258,103.455L419.409,102.74L419.615,102.048L419.875,101.381L420.184,100.741L420.436,100.3L420.829,99.71L421.331,99.079L421.886,98.495L422.491,97.964L423.143,97.488L423.837,97.071L424.477,96.757L425.143,96.495L425.833,96.286L426.238,96.191L426.966,96.069L427.069,96.057ZM421.868,111.387C422.641,112.134 423.548,112.743 424.549,113.174C421.485,113.38 419.06,115.934 419.06,119.05C419.06,122.301 421.699,124.94 424.95,124.94L427.201,124.94L428.351,126.089L427.179,127.261L424.95,127.261C420.418,127.261 416.739,123.582 416.739,119.05C416.739,115.69 418.762,112.799 421.655,111.529C421.735,111.494 421.807,111.446 421.868,111.387ZM456.96,121.6L453.12,121.6L453.12,120.88C452.436,121.221 451.689,121.451 450.9,121.548L450.54,121.583L450.182,121.599L448.512,121.6L448.087,121.587L447.753,121.559L447.274,121.489C446.5,121.349 445.77,121.08 445.109,120.704L444.823,120.533C442.887,119.307 441.6,117.147 441.6,114.688L441.6,102.66C441.6,102.573 441.602,102.486 441.605,102.4L445.413,102.4C445.406,102.486 445.403,114.688 445.403,114.688C445.403,116.404 446.796,117.797 448.512,117.797L450.048,117.797C451.6,117.797 452.887,116.659 453.12,115.172L453.12,111.997L455.042,113.918L456.96,112L456.96,121.6ZM471.552,102.4L473.222,102.401L473.58,102.417L473.94,102.452C477.353,102.872 480,105.786 480,109.312L480,121.34C480,121.427 479.998,121.514 479.995,121.6L476.187,121.6C476.194,121.514 476.197,109.312 476.197,109.312C476.197,107.596 474.804,106.203 473.088,106.203L471.552,106.203C469.972,106.203 468.666,107.383 468.468,108.909C468.476,109.043 468.48,109.177 468.48,109.312L468.48,121.34C468.48,121.427 468.478,121.514 468.475,121.6L464.645,121.6C464.642,121.514 464.64,121.427 464.64,121.34L464.64,109.312C464.64,109.177 464.644,109.042 464.652,108.909C464.454,107.383 463.148,106.203 461.568,106.203L460.032,106.203C458.404,106.203 457.066,107.457 456.933,109.051L456.933,109.82C456.933,109.907 456.932,109.994 456.928,110.08L456.923,110.08C456.923,110.435 456.923,110.897 456.923,111.431L455.043,113.312L454.493,112.762L454.495,112.76L453.12,111.385L453.12,109.312C453.12,109.24 453.121,109.168 453.123,109.096C453.126,107.647 453.128,104.849 453.129,102.4L456.933,102.4L456.933,103.133C457.493,102.851 458.096,102.644 458.73,102.523L459.273,102.441L459.607,102.413L460.032,102.4L461.702,102.401L462.06,102.417L462.42,102.452C464.039,102.652 465.487,103.412 466.56,104.533C466.9,104.178 467.278,103.859 467.687,103.582L468.149,103.296C468.792,102.931 469.5,102.666 470.25,102.523L470.793,102.441L471.127,102.413L471.552,102.4ZM456.203,110.218L456.203,111.133L455.045,112.292L453.84,111.086C453.84,111.086 453.84,109.312 453.84,109.312L453.843,109.107C453.846,107.789 453.847,105.379 453.848,103.12C453.848,103.12 456.213,103.12 456.213,103.12C456.213,103.12 456.213,104.301 456.213,104.301L457.257,103.776C457.775,103.516 458.334,103.326 458.922,103.219L459.363,103.156C459.363,103.156 459.654,103.131 459.654,103.131L460.032,103.12L461.686,103.121C461.686,103.121 462.001,103.135 462.001,103.135C462.001,103.135 462.332,103.167 462.332,103.167C463.783,103.345 465.078,104.027 466.04,105.031L466.56,105.574L467.08,105.031C467.427,104.669 467.817,104.349 468.242,104.079L468.511,103.918C469.1,103.585 469.751,103.344 470.442,103.219L470.883,103.156C470.883,103.156 471.174,103.131 471.174,103.131L471.552,103.12L473.206,103.121L473.58,103.137C473.58,103.137 473.521,103.135 473.521,103.135C473.521,103.135 473.94,103.172 473.94,103.172L473.852,103.167C476.91,103.543 479.28,106.153 479.28,109.312L479.28,120.88L476.907,120.88C476.913,118.167 476.917,109.312 476.917,109.312L476.917,109.312C476.917,107.198 475.202,105.483 473.088,105.483L471.552,105.483C469.606,105.483 467.998,106.937 467.754,108.817L467.746,108.884L467.76,109.312L467.76,120.88L465.36,120.88L465.36,109.312L465.374,108.884L465.366,108.817C465.122,106.937 463.514,105.483 461.568,105.483L460.032,105.483C458.026,105.483 456.379,107.028 456.216,108.992L456.213,109.82L456.203,110.218ZM434.121,110.583C433.209,110.27 432.233,110.1 431.217,110.1L430.94,110.1C432.749,109.094 433.973,107.164 433.973,104.95C433.973,102.024 431.835,99.594 429.038,99.137L427.822,97.921L428.958,96.785C433.079,97.223 436.294,100.714 436.294,104.95C436.294,107.024 435.523,108.919 434.253,110.364C434.196,110.43 434.151,110.504 434.121,110.583Z" style="fill:rgb(255,184,0);"/>
        </g>
    </g>
</svg>
